<svg width="20" height="20" viewBox="0 0 20 20" fill="none" xmlns="http://www.w3.org/2000/svg">
<path d="M1.22178 11.3044L1.94222 11.096L1.22178 11.3044ZM1.22178 4.65653L0.50134 4.44805H0.50134L1.22178 4.65653ZM18.2782 4.65654L18.9987 4.44806V4.44806L18.2782 4.65654ZM18.2782 11.3044L17.5578 11.096V11.096L18.2782 11.3044ZM14.5648 14.7575L14.4247 14.0207L14.5648 14.7575ZM4.93522 14.7575L5.07531 14.0207L4.93522 14.7575ZM4.93522 1.20344L4.79513 0.466642L4.93522 1.20344ZM14.5648 1.20344L14.7049 0.466642L14.5648 1.20344ZM1.27005 11.4712L0.54961 11.6797H0.54961L1.27005 11.4712ZM18.23 11.4712L18.9504 11.6797L18.9504 11.6797L18.23 11.4712ZM18.23 4.48973L17.5095 4.69822L17.5095 4.69822L18.23 4.48973ZM1.27005 4.48973L1.99049 4.69822L1.27005 4.48973ZM10.5 15.673C10.5 15.2588 10.1642 14.923 9.75 14.923C9.33579 14.923 9 15.2588 9 15.673H9.75H10.5ZM9 18.75C9 19.1642 9.33579 19.5 9.75 19.5C10.1642 19.5 10.5 19.1642 10.5 18.75H9.75H9ZM7.11386 18C6.69964 18 6.36386 18.3358 6.36386 18.75C6.36386 19.1642 6.69964 19.5 7.11386 19.5V18.75V18ZM12.3861 19.5C12.8004 19.5 13.1361 19.1642 13.1361 18.75C13.1361 18.3358 12.8004 18 12.3861 18V18.75V19.5ZM18.23 4.48973L17.5095 4.69822L17.5578 4.86503L18.2782 4.65654L18.9987 4.44806L18.9504 4.28125L18.23 4.48973ZM18.2782 11.3044L17.5578 11.096L17.5095 11.2628L18.23 11.4712L18.9504 11.6797L18.9987 11.5129L18.2782 11.3044ZM1.27005 11.4712L1.99049 11.2628L1.94222 11.096L1.22178 11.3044L0.50134 11.5129L0.54961 11.6797L1.27005 11.4712ZM1.22178 4.65653L1.94222 4.86502L1.99049 4.69822L1.27005 4.48973L0.54961 4.28125L0.50134 4.44805L1.22178 4.65653ZM1.22178 11.3044L1.94222 11.096C1.35259 9.05842 1.35259 6.90256 1.94222 4.86502L1.22178 4.65653L0.50134 4.44805C-0.167113 6.75798 -0.167113 9.203 0.50134 11.5129L1.22178 11.3044ZM18.2782 4.65654L17.5578 4.86502C18.1474 6.90256 18.1474 9.05842 17.5578 11.096L18.2782 11.3044L18.9987 11.5129C19.6671 9.203 19.6671 6.75798 18.9987 4.44806L18.2782 4.65654ZM14.5648 14.7575L14.4247 14.0207C11.3375 14.6077 8.16251 14.6077 5.07531 14.0207L4.93522 14.7575L4.79513 15.4943C8.06746 16.1165 11.4325 16.1165 14.7049 15.4943L14.5648 14.7575ZM4.93522 1.20344L5.07531 1.94024C8.16251 1.35325 11.3375 1.35325 14.4247 1.94024L14.5648 1.20344L14.7049 0.466642C11.4325 -0.155547 8.06746 -0.155547 4.79513 0.466642L4.93522 1.20344ZM4.93522 14.7575L5.07531 14.0207C3.58267 13.7369 2.39581 12.6634 1.99049 11.2628L1.27005 11.4712L0.54961 11.6797C1.11686 13.6399 2.765 15.1083 4.79513 15.4943L4.93522 14.7575ZM14.5648 14.7575L14.7049 15.4943C16.735 15.1083 18.3831 13.6399 18.9504 11.6797L18.23 11.4712L17.5095 11.2628C17.1042 12.6634 15.9173 13.7369 14.4247 14.0207L14.5648 14.7575ZM14.5648 1.20344L14.4247 1.94024C15.9173 2.22405 17.1042 3.2976 17.5095 4.69822L18.23 4.48973L18.9504 4.28125C18.3831 2.32103 16.735 0.852644 14.7049 0.466642L14.5648 1.20344ZM4.93522 1.20344L4.79513 0.466642C2.765 0.852644 1.11686 2.32103 0.54961 4.28125L1.27005 4.48973L1.99049 4.69822C2.39581 3.2976 3.58267 2.22405 5.07531 1.94024L4.93522 1.20344ZM9.75 15.673H9V18.75H9.75H10.5V15.673H9.75ZM7.11386 18.75V19.5H12.3861V18.75V18H7.11386V18.75Z" fill="#C7C7DF"/>
</svg>
